<?xml version="1.0" encoding="utf-8"?>
<!-- Generator: Adobe Illustrator 24.1.3, SVG Export Plug-In . SVG Version: 6.00 Build 0)  -->
<svg version="1.1" id="Layer_1" xmlns="http://www.w3.org/2000/svg" xmlns:xlink="http://www.w3.org/1999/xlink" x="0px" y="0px"
	 viewBox="0 0 165.5 183.6" style="enable-background:new 0 0 165.5 183.6;" xml:space="preserve">
<style type="text/css">
	.st0{fill:#FFFFFF;}
	.st1{fill:#8D2165;}
	.st2{fill:url(#SVGID_1_);}
	.st3{fill:url(#SVGID_2_);}
	.st4{fill:url(#SVGID_3_);}
	.st5{fill:url(#SVGID_4_);}
	.st6{fill:url(#SVGID_5_);}
	.st7{fill:#EF4135;}
	.st8{fill:#FF1000;}
	.st9{fill:#21EABA;}
	.st10{fill:#47BCA0;}
	.st11{fill:url(#SVGID_6_);}
	.st12{fill:url(#SVGID_7_);}
	.st13{fill:url(#SVGID_8_);}
	.st14{fill:url(#SVGID_9_);}
	.st15{fill:url(#SVGID_10_);}
	.st16{fill:url(#SVGID_11_);}
	.st17{fill:url(#SVGID_12_);}
	.st18{fill:url(#SVGID_13_);}
	.st19{fill:url(#SVGID_14_);}
	.st20{fill:url(#SVGID_15_);}
	.st21{fill:url(#SVGID_16_);}
	.st22{fill:url(#SVGID_17_);}
	.st23{fill:url(#SVGID_18_);}
	.st24{fill:url(#SVGID_19_);}
	.st25{fill:url(#SVGID_20_);}
</style>
<g>
	<g>
		<circle class="st0" cx="71.6" cy="53.5" r="1.2"/>
	</g>
	<g>
		<path class="st1" d="M35.7,60.4l6.5,9.3l-3.8,34.6l-2.7,1.9V60.4z"/>
	</g>
	<g>
		
			<linearGradient id="SVGID_1_" gradientUnits="userSpaceOnUse" x1="21.7454" y1="-886.1539" x2="21.7454" y2="-912.5695" gradientTransform="matrix(0.9996 -2.536076e-02 -2.536076e-02 -0.9996 -1.5312 -841.3798)">
			<stop  offset="2.126736e-02" style="stop-color:#3664EE"/>
			<stop  offset="1" style="stop-color:#8D21B1"/>
		</linearGradient>
		<path class="st2" d="M35.7,44.1l0.1,16.5l6.5,9.2l8.1-13.9L35.7,44.1z"/>
	</g>
	<g>
		
			<linearGradient id="SVGID_2_" gradientUnits="userSpaceOnUse" x1="21.8309" y1="-885.0112" x2="43.0194" y2="-895.5923" gradientTransform="matrix(0.9996 -2.681615e-02 -2.681615e-02 -0.9996 -2.19 -841.5336)">
			<stop  offset="0" style="stop-color:#445DE4"/>
			<stop  offset="1" style="stop-color:#8D21AC"/>
		</linearGradient>
		<path class="st3" d="M55.7,38.7L67.5,56l-17.3-0.1L51,36L55.7,38.7z"/>
	</g>
	<g>
		
			<linearGradient id="SVGID_3_" gradientUnits="userSpaceOnUse" x1="39.9774" y1="-36.3805" x2="54.7513" y2="-51.1544" gradientTransform="matrix(1 0 0 -1 0 0.2898)">
			<stop  offset="2.341683e-02" style="stop-color:#5890F9"/>
			<stop  offset="0.2278" style="stop-color:#5E84F0"/>
			<stop  offset="0.5936" style="stop-color:#6E65D7"/>
			<stop  offset="1" style="stop-color:#833CB5"/>
		</linearGradient>
		<path class="st4" d="M35.7,44.1l14.6,11.8L51,36C44.6,32.9,35.8,37.5,35.7,44.1z"/>
	</g>
	<g>
		<path class="st1" d="M66.9,55.4L55.4,38.5l46.7,27.1l-0.3,3.8L66.9,55.4z"/>
	</g>
	
		<linearGradient id="SVGID_4_" gradientUnits="userSpaceOnUse" x1="20.8804" y1="-999.4583" x2="15.6718" y2="-948.0236" gradientTransform="matrix(0.9996 -2.681615e-02 -2.681615e-02 -0.9996 -2.19 -841.5336)">
		<stop  offset="0" style="stop-color:#EF4135"/>
		<stop  offset="1" style="stop-color:#8D2165"/>
	</linearGradient>
	<path class="st5" d="M35.7,106.3l2.2-1.8l14.1,42.8c-8,3.4-15.9-0.2-16.5-6.7L35.7,106.3z"/>
	<g>
		
			<linearGradient id="SVGID_5_" gradientUnits="userSpaceOnUse" x1="112.145" y1="-938.11" x2="77.4175" y2="-915.5676" gradientTransform="matrix(0.9996 -2.681615e-02 -2.681615e-02 -0.9996 -2.19 -841.5336)">
			<stop  offset="0" style="stop-color:#47BCA0"/>
			<stop  offset="1" style="stop-color:#8D2165"/>
		</linearGradient>
		<path class="st6" d="M133.7,83.7l-31.6-18.1l-0.3,3.2l31.2,31.7C139.3,96.3,139.7,87.8,133.7,83.7z"/>
	</g>
	<path class="st7" d="M73.7,134.8l-21.6,12.4c-7.8,1.7-11.2-2-12.7-3.1l33-15.1L73.7,134.8z"/>
	<path class="st8" d="M91.7,124.5l-19,10.9l-1.5-6.9l19.4-10.6L91.7,124.5z"/>
	<path class="st9" d="M90,118.5l30.4-16.9l-17.2,16.2l-12.7,7.4L90,118.5z"/>
	<g>
		<path class="st10" d="M103.6,117.5l29.4-17c2.8-1.4,4.7-6.6,3.2-10.9l-15,11.3L103.6,117.5z"/>
	</g>
	<g>
		
			<linearGradient id="SVGID_6_" gradientUnits="userSpaceOnUse" x1="30.4729" y1="-899.3652" x2="44.1537" y2="-930.8904" gradientTransform="matrix(0.9996 -2.681615e-02 -2.681615e-02 -0.9996 -2.19 -841.5336)">
			<stop  offset="0" style="stop-color:#8D21A9"/>
			<stop  offset="1" style="stop-color:#54BCEB"/>
		</linearGradient>
		<path class="st11" d="M42.2,69.2l7.4-13.3l18.2-0.4l0.6,34.4L42.2,69.2z"/>
	</g>
	<g>
		
			<linearGradient id="SVGID_7_" gradientUnits="userSpaceOnUse" x1="40.5462" y1="-932.3599" x2="62.5037" y2="-887.225" gradientTransform="matrix(0.9996 -2.681615e-02 -2.681615e-02 -0.9996 -2.19 -841.5336)">
			<stop  offset="0.2359" style="stop-color:#54BCEB"/>
			<stop  offset="0.776" style="stop-color:#8D2165"/>
		</linearGradient>
		<path class="st12" d="M67.5,55.4l0.9,34.8l18.4-27.5L67.5,55.4z"/>
	</g>
	<g>
		
			<linearGradient id="SVGID_8_" gradientUnits="userSpaceOnUse" x1="77.1627" y1="-909.9255" x2="62.1114" y2="-934.4518" gradientTransform="matrix(0.9996 -2.681615e-02 -2.681615e-02 -0.9996 -2.19 -841.5336)">
			<stop  offset="0" style="stop-color:#8D2167"/>
			<stop  offset="0.2256" style="stop-color:#72567B"/>
			<stop  offset="0.4875" style="stop-color:#568E8F"/>
			<stop  offset="0.7134" style="stop-color:#42B69E"/>
			<stop  offset="0.8915" style="stop-color:#36CFA7"/>
			<stop  offset="1" style="stop-color:#31D8AA"/>
		</linearGradient>
		<path class="st13" d="M86.7,62.7L69.8,87.3l35.8-2.6l-3.9-15.3L86.7,62.7z"/>
	</g>
	<g>
		
			<linearGradient id="SVGID_9_" gradientUnits="userSpaceOnUse" x1="102.0451" y1="-927.3757" x2="76.2525" y2="-918.978" gradientTransform="matrix(0.9996 -2.681615e-02 -2.681615e-02 -0.9996 -2.19 -841.5336)">
			<stop  offset="0" style="stop-color:#47BCA0"/>
			<stop  offset="1" style="stop-color:#C1D82F"/>
		</linearGradient>
		<path class="st14" d="M101.4,68.6l3.7,15.6l31.2,9.2L101.4,68.6z"/>
	</g>
	<g>
		
			<linearGradient id="SVGID_10_" gradientUnits="userSpaceOnUse" x1="12.3292" y1="-917.6198" x2="34.0935" y2="-927.7565" gradientTransform="matrix(0.9996 -2.681615e-02 -2.681615e-02 -0.9996 -2.19 -841.5336)">
			<stop  offset="0.1842" style="stop-color:#8D2165"/>
			<stop  offset="0.9062" style="stop-color:#5BAADC"/>
			<stop  offset="0.9979" style="stop-color:#5BAADC"/>
		</linearGradient>
		<path class="st15" d="M40.3,87.1l1.9-17.9L55,79l12.7,9.8l0.7,1.1l-25.7-1.6L40.3,87.1z"/>
	</g>
	<g>
		
			<linearGradient id="SVGID_11_" gradientUnits="userSpaceOnUse" x1="8.3901" y1="-970.7892" x2="48.2426" y2="-920.23" gradientTransform="matrix(0.9996 -2.681615e-02 -2.681615e-02 -0.9996 -2.19 -841.5336)">
			<stop  offset="2.133870e-02" style="stop-color:#8D2165"/>
			<stop  offset="0.6149" style="stop-color:#F89728"/>
		</linearGradient>
		<path class="st16" d="M37.9,106.8l3.6,23.7l27.6-38.2L69,89.9L37.9,106.8z"/>
	</g>
	<g>
		
			<linearGradient id="SVGID_12_" gradientUnits="userSpaceOnUse" x1="17.5595" y1="-936.3456" x2="35.9987" y2="-935.156" gradientTransform="matrix(0.9996 -2.681615e-02 -2.681615e-02 -0.9996 -2.19 -841.5336)">
			<stop  offset="0" style="stop-color:#8D2165"/>
			<stop  offset="1" style="stop-color:#FDD500"/>
			<stop  offset="1" style="stop-color:#FDD500"/>
		</linearGradient>
		<path class="st17" d="M69,89.9l-18.2,10L40.4,88.3l-0.1-1.2L69,89.9z"/>
	</g>
	<g>
		
			<linearGradient id="SVGID_13_" gradientUnits="userSpaceOnUse" x1="-0.3059" y1="-875.2212" x2="9.806" y2="-874.0316" gradientTransform="matrix(1.0401 -2.790018e-02 -2.898822e-02 -1.0806 13.7021 -848.6561)">
			<stop  offset="0" style="stop-color:#8D2165"/>
			<stop  offset="1" style="stop-color:#F89728"/>
		</linearGradient>
		<path class="st18" d="M37.7,107.1l2.5-20l10.9,12.6L37.7,107.1z"/>
	</g>
	<g>
		
			<linearGradient id="SVGID_14_" gradientUnits="userSpaceOnUse" x1="61.8572" y1="-988.758" x2="41.4634" y2="-924.487" gradientTransform="matrix(0.9996 -2.681615e-02 -2.681615e-02 -0.9996 -2.19 -841.5336)">
			<stop  offset="0.2239" style="stop-color:#FF1000"/>
			<stop  offset="0.5579" style="stop-color:#FDD500"/>
		</linearGradient>
		<path class="st19" d="M87.1,120.6L68.4,89.3l3.3,41.6L87.1,120.6z"/>
	</g>
	
		<linearGradient id="SVGID_15_" gradientUnits="userSpaceOnUse" x1="20.4356" y1="-934.2197" x2="42.1578" y2="-934.8403" gradientTransform="matrix(1.0325 -2.769656e-02 -2.815420e-02 -1.0495 10.5714 -847.3525)">
		<stop  offset="0" style="stop-color:#FF1000"/>
		<stop  offset="1" style="stop-color:#F89728"/>
	</linearGradient>
	<path class="st20" d="M42.6,143.9l29.6-22.7l0.8,6.2l1.3,3.3l-12.5,6.5L42.6,143.9z"/>
	<g>
		
			<linearGradient id="SVGID_16_" gradientUnits="userSpaceOnUse" x1="40.1297" y1="-969.1415" x2="47.9088" y2="-929.6481" gradientTransform="matrix(0.9996 -2.681615e-02 -2.681615e-02 -0.9996 -2.19 -841.5336)">
			<stop  offset="6.121970e-02" style="stop-color:#F89728"/>
			<stop  offset="0.7957" style="stop-color:#FDD500"/>
		</linearGradient>
		<path class="st21" d="M55.6,133.9L69,91.7l2.6,30.3L55.6,133.9z"/>
	</g>
	<g>
		
			<linearGradient id="SVGID_17_" gradientUnits="userSpaceOnUse" x1="33.7965" y1="-954.6667" x2="18.5995" y2="-987.9832" gradientTransform="matrix(0.9996 -2.681615e-02 -2.681615e-02 -0.9996 -2.19 -841.5336)">
			<stop  offset="0" style="stop-color:#F89728"/>
			<stop  offset="1" style="stop-color:#FF1000"/>
		</linearGradient>
		<path class="st22" d="M41.5,129.9l27.2-37.2l-12.8,41.1l-12.8,9.8L41.5,129.9z"/>
	</g>
	<g>
		
			<linearGradient id="SVGID_18_" gradientUnits="userSpaceOnUse" x1="43.1722" y1="-961.2925" x2="69.5726" y2="-933.0063" gradientTransform="matrix(0.9996 -2.681615e-02 -2.681615e-02 -0.9996 -2.19 -841.5336)">
			<stop  offset="0.1735" style="stop-color:#FDD500"/>
			<stop  offset="0.7028" style="stop-color:#C1D82F"/>
		</linearGradient>
		<path class="st23" d="M100.5,90.8l-32.2-1.5l18.6,33.3L100.5,90.8z"/>
	</g>
	<g>
		
			<linearGradient id="SVGID_19_" gradientUnits="userSpaceOnUse" x1="115.6264" y1="-945.0392" x2="39.1955" y2="-923.1172" gradientTransform="matrix(0.9996 -2.681615e-02 -2.681615e-02 -0.9996 -2.19 -841.5336)">
			<stop  offset="0" style="stop-color:#47BCA0"/>
			<stop  offset="1" style="stop-color:#C1D82F"/>
			<stop  offset="1" style="stop-color:#C1D82F;stop-opacity:0"/>
		</linearGradient>
		<path class="st24" d="M105.7,84.1l-35.8,3.3l-1.5,1.9l32.2,1.5l22.9,9.5l12.9-6.9L105.7,84.1z"/>
	</g>
	<g>
		
			<linearGradient id="SVGID_20_" gradientUnits="userSpaceOnUse" x1="81.6962" y1="-959.9374" x2="81.6962" y2="-934.8003" gradientTransform="matrix(0.9996 -2.681615e-02 -2.681615e-02 -0.9996 -2.19 -841.5336)">
			<stop  offset="0.2067" style="stop-color:#25E1B4"/>
			<stop  offset="1" style="stop-color:#C1D82F"/>
		</linearGradient>
		<path class="st25" d="M86.8,122.7l13.7-31.9l22.9,9.5L86.8,122.7z"/>
	</g>
</g>
</svg>
